<svg width="24" height="24" viewBox="0 0 24 24" fill="none" xmlns="http://www.w3.org/2000/svg">
<path d="M17.6254 16.4999H17.2504V14.9999H17.6254C18.5205 15.0357 19.3932 14.7145 20.0514 14.1069C20.7097 13.4992 21.0996 12.655 21.1354 11.7599C21.1712 10.8648 20.8499 9.99215 20.2423 9.3339C19.6347 8.67564 18.7905 8.28573 17.8954 8.24992H17.2504L17.1754 7.63492C17.009 6.37226 16.3893 5.21313 15.4317 4.37346C14.4741 3.53379 13.244 3.07083 11.9704 3.07083C10.6968 3.07083 9.46664 3.53379 8.50906 4.37346C7.55148 5.21313 6.93178 6.37226 6.76538 7.63492L6.75038 8.24992H6.10538C5.21028 8.28573 4.36606 8.67564 3.75844 9.3339C3.15082 9.99215 2.82958 10.8648 2.86538 11.7599C2.90119 12.655 3.2911 13.4992 3.94936 14.1069C4.60761 14.7145 5.48028 15.0357 6.37538 14.9999H6.75038V16.4999H6.37538C5.17269 16.4923 4.01526 16.0404 3.12562 15.231C2.23599 14.4216 1.67694 13.3119 1.55598 12.1153C1.43502 10.9187 1.76067 9.71961 2.47032 8.74856C3.17998 7.77752 4.22354 7.10308 5.40038 6.85492C5.72416 5.34481 6.55601 3.9914 7.75712 3.02052C8.95823 2.04965 10.456 1.52002 12.0004 1.52002C13.5448 1.52002 15.0425 2.04965 16.2436 3.02052C17.4448 3.9914 18.2766 5.34481 18.6004 6.85492C19.7772 7.10308 20.8208 7.77752 21.5304 8.74856C22.2401 9.71961 22.5658 10.9187 22.4448 12.1153C22.3238 13.3119 21.7648 14.4216 20.8751 15.231C19.9855 16.0404 18.8281 16.4923 17.6254 16.4999Z" fill="#AC110A"/>
<path d="M12.75 19.6275V10.5H11.25V19.6275L9.3075 17.6925L8.25 18.75L12 22.5L15.75 18.75L14.6925 17.6925L12.75 19.6275Z" fill="#AC110A"/>
</svg>
