<svg width="21" height="21" viewBox="0 0 21 21" fill="none" xmlns="http://www.w3.org/2000/svg">
<path d="M6.96924 5.42675C6.80662 5.40308 6.6408 5.43581 6.49937 5.5195H6.48712C6.15899 5.712 5.86324 5.95438 5.61124 6.23963C5.40124 6.482 5.28749 6.727 5.25774 6.96325C5.24024 7.10325 5.25249 7.245 5.29362 7.37887L5.30937 7.38762C5.54562 8.0815 5.85362 8.74913 6.22987 9.37738C6.71501 10.2598 7.31203 11.0759 8.00612 11.8055L8.02712 11.8353L8.06037 11.8598L8.08049 11.8834L8.10499 11.9044C8.83713 12.6006 9.65516 13.2004 10.5392 13.6894C11.5499 14.2398 12.1632 14.4996 12.5316 14.6081V14.6134C12.6392 14.6466 12.7372 14.6615 12.8361 14.6615C13.1498 14.6383 13.4468 14.5108 13.6796 14.2992C13.964 14.0472 14.2046 13.7506 14.3919 13.4208V13.4146C14.5677 13.0821 14.5082 12.7689 14.2545 12.5563C13.7448 12.1109 13.1937 11.7154 12.6086 11.375C12.2166 11.1624 11.8185 11.291 11.6575 11.5063L11.3136 11.9403C11.1369 12.1555 10.8166 12.1258 10.8166 12.1258L10.8079 12.131C8.41824 11.5211 7.78037 9.10175 7.78037 9.10175C7.78037 9.10175 7.75062 8.77275 7.97199 8.60475L8.40249 8.25825C8.60899 8.09025 8.75249 7.693 8.53112 7.301C8.19302 6.71542 7.79825 6.16444 7.35249 5.656C7.25527 5.53634 7.11893 5.45484 6.96749 5.42588L6.96924 5.42675ZM11.0074 4.375C10.8913 4.375 10.7801 4.42109 10.698 4.50314C10.616 4.58519 10.5699 4.69647 10.5699 4.8125C10.5699 4.92853 10.616 5.03981 10.698 5.12186C10.7801 5.20391 10.8913 5.25 11.0074 5.25C12.1134 5.25 13.0321 5.61137 13.7592 6.30438C14.1329 6.68325 14.4242 7.13213 14.615 7.62388C14.8066 8.1165 14.8941 8.64238 14.8714 9.16913C14.8665 9.28516 14.9079 9.39837 14.9865 9.48387C15.0651 9.56936 15.1745 9.62013 15.2905 9.625C15.4065 9.62987 15.5197 9.58845 15.6052 9.50985C15.6907 9.43125 15.7415 9.32191 15.7464 9.20588C15.7735 8.55793 15.666 7.91139 15.4305 7.30713C15.194 6.69999 14.8354 6.14785 14.377 5.68488L14.3682 5.67613C13.4661 4.81425 12.3251 4.375 11.0074 4.375Z" fill="#2B2929"/>
<path d="M10.9766 5.81337C10.8605 5.81337 10.7493 5.85947 10.6672 5.94152C10.5852 6.02356 10.5391 6.13484 10.5391 6.25087C10.5391 6.36691 10.5852 6.47819 10.6672 6.56023C10.7493 6.64228 10.8605 6.68837 10.9766 6.68837H10.9914C11.7894 6.74525 12.3704 7.01125 12.7773 7.44788C13.1947 7.89762 13.4108 8.45675 13.3942 9.148C13.3915 9.26403 13.4351 9.37637 13.5152 9.46031C13.5954 9.54424 13.7056 9.59289 13.8216 9.59556C13.9377 9.59823 14.05 9.5547 14.1339 9.47454C14.2179 9.39438 14.2665 9.28416 14.2692 9.16812C14.2902 8.26075 13.9979 7.47762 13.4187 6.85287V6.85112C12.8263 6.21587 12.0134 5.87987 11.0352 5.81425L11.0203 5.8125L10.9766 5.81337Z" fill="#2B2929"/>
<path d="M10.9603 7.27904C10.9018 7.27387 10.8428 7.28056 10.7869 7.29869C10.731 7.31683 10.6793 7.34604 10.6349 7.3846C10.5906 7.42315 10.5544 7.47024 10.5286 7.52307C10.5029 7.5759 10.488 7.63338 10.485 7.69208C10.4819 7.75078 10.4907 7.80949 10.5108 7.86471C10.531 7.91993 10.562 7.97053 10.6022 8.01348C10.6423 8.05644 10.6906 8.09086 10.7444 8.11471C10.7981 8.13856 10.8561 8.15134 10.9148 8.15229C11.2806 8.17154 11.5142 8.28179 11.6612 8.42966C11.8091 8.57841 11.9193 8.81729 11.9395 9.19091C11.9405 9.24962 11.9534 9.30752 11.9774 9.36114C12.0013 9.41476 12.0358 9.46301 12.0788 9.50302C12.1218 9.54303 12.1724 9.57397 12.2276 9.59401C12.2828 9.61405 12.3414 9.62277 12.4001 9.61966C12.4587 9.61655 12.5161 9.60166 12.5689 9.57589C12.6217 9.55011 12.6687 9.51398 12.7072 9.46965C12.7457 9.42531 12.7749 9.37368 12.793 9.31782C12.8111 9.26197 12.8178 9.20303 12.8127 9.14454C12.7847 8.61954 12.6202 8.15579 12.2833 7.81454C11.9447 7.47329 11.4836 7.30704 10.9603 7.27904Z" fill="#2B2929"/>
<path fill-rule="evenodd" clip-rule="evenodd" d="M6.18346 2.08593C8.96777 1.46354 11.8552 1.46354 14.6395 2.08593L14.9361 2.15155C15.75 2.33351 16.4975 2.73757 17.0956 3.31882C17.6937 3.90008 18.119 4.63578 18.3241 5.44418C19.0308 8.22921 19.0308 11.1466 18.3241 13.9317C18.119 14.7401 17.6937 15.4758 17.0956 16.057C16.4975 16.6383 15.75 17.0423 14.9361 17.2243L14.6386 17.2899C12.8947 17.6799 11.1053 17.8268 9.32121 17.7266L6.99983 19.8038C6.91232 19.8822 6.80537 19.9356 6.69016 19.9585C6.57495 19.9814 6.4557 19.973 6.34485 19.9341C6.234 19.8953 6.13562 19.8273 6.05999 19.7374C5.98435 19.6476 5.93422 19.539 5.91483 19.4232L5.53071 17.1289C4.79412 16.8997 4.12862 16.4855 3.59781 15.9257C3.067 15.3659 2.68862 14.6794 2.49883 13.9317C1.79206 11.1467 1.79206 8.2292 2.49883 5.44418C2.70395 4.63578 3.12918 3.90008 3.72728 3.31882C4.32537 2.73757 5.07291 2.33351 5.88683 2.15155L6.18346 2.08593ZM14.3533 3.36605C11.7575 2.78576 9.06546 2.78576 6.46958 3.36605L6.17208 3.43255C5.59521 3.56175 5.06544 3.84832 4.6416 4.26042C4.21776 4.67252 3.91643 5.19404 3.77108 5.76705C3.11808 8.34019 3.11808 11.0357 3.77108 13.6088C3.9165 14.1819 4.21796 14.7035 4.64196 15.1156C5.06597 15.5278 5.59593 15.8142 6.17296 15.9433L6.25171 15.9608C6.3791 15.9893 6.49511 16.0551 6.58488 16.1499C6.67466 16.2447 6.73414 16.3641 6.75571 16.4928L7.01296 18.0311L8.65096 16.5654C8.71637 16.5067 8.79291 16.4618 8.87603 16.4332C8.95915 16.4046 9.04716 16.3931 9.13483 16.3992C10.884 16.5233 12.6419 16.3921 14.3533 16.0098L14.65 15.9433C15.227 15.8142 15.7569 15.5278 16.181 15.1156C16.605 14.7035 16.9064 14.1819 17.0518 13.6088C17.7046 11.0363 17.7046 8.34043 17.0518 5.76705C16.9064 5.19393 16.605 4.67233 16.181 4.26022C15.7569 3.84811 15.227 3.56161 14.65 3.43255L14.3533 3.36605Z" fill="#2B2929"/>
</svg>
